<?xml version="1.0" encoding="UTF-8"?>
<svg width="1200pt" height="1200pt" version="1.1" viewBox="0 0 1200 1200" xmlns="http://www.w3.org/2000/svg">
 <g fill="#00449e">
  <path d="m494.5 845.5c12.473 26.367 30.062 49.992 51.75 69.5 9.0352 7.6094 19.254 13.691 30.25 18v-146.25c-34.148 1.5352-68.102 5.9688-101.5 13.25 5.5312 15.562 12.043 30.762 19.5 45.5z"/>
  <path d="m457.5 736.5c0 3.75 1.5 7.5 2.5 11 38.23-9.0977 77.238-14.539 116.5-16.25v-102.5h-132.5c1.5078 36.23 6.0234 72.27 13.5 107.75z"/>
  <path d="m494.75 354.5c-7.6211 14.695-14.219 29.898-19.75 45.5 32.875 7.5352 66.328 12.301 100 14.25v-147.25c-11.027 4.25-21.254 10.336-30.25 18-21.047 19.676-38.035 43.289-50 69.5z"/>
  <path d="m445 329.5c6.9609-13.828 14.812-27.188 23.5-40-38.148 16.141-72.984 39.195-102.75 68 18.121 9.8555 37.02 18.219 56.5 25 6.4141-18.145 14.016-35.852 22.75-53z"/>
  <path d="m779.75 389c20.918-6.832 41.305-15.188 61-25l-2.5-2.25c-30.543-30.801-66.805-55.344-106.75-72.25 8.6875 12.812 16.539 26.172 23.5 40 9.625 19.234 17.895 39.113 24.75 59.5z"/>
  <path d="m406.5 437c-27.191-9.6445-53.328-22.043-78-37-37.062 50.512-59.387 110.31-64.5 172.75h125c1.4414-45.707 7.3008-91.172 17.5-135.75z"/>
  <path d="m388.5 628.75h-125c2.7812 35.367 11.223 70.059 25 102.75 10.449 24.402 23.883 47.41 40 68.5 24.73-14.648 50.859-26.793 78-36.25-10.488-44.285-16.52-89.512-18-135z"/>
  <path d="m422.25 816.75c-19.48 6.7812-38.379 15.145-56.5 25 29.766 28.805 64.602 51.859 102.75 68-8.6875-12.812-16.539-26.172-23.5-40-8.7344-17.148-16.336-34.855-22.75-53z"/>
  <path d="m457.5 464.25c-7.6602 35.871-12.18 72.344-13.5 109h132.5v-104.5c-39.254-1.8008-78.254-7.2422-116.5-16.25-1 3.75-1.75 8-2.5 11.75z"/>
  <path d="m877 408c-26.188 14.301-53.742 25.941-82.25 34.75 9.6367 42.883 15.246 86.574 16.75 130.5h125c-2.8398-35.762-11.277-70.855-25-104-9.3438-21.559-20.906-42.086-34.5-61.25z"/>
  <path d="m794.75 758c28.461 8.7227 56.008 20.195 82.25 34.25 13.281-19.008 24.512-39.371 33.5-60.75 13.777-32.691 22.219-67.383 25-102.75h-125c-1.25 43.477-6.5234 86.746-15.75 129.25z"/>
  <path d="m600 0c-159.13 0-311.74 63.215-424.27 175.73-112.52 112.52-175.73 265.14-175.73 424.27s63.215 311.74 175.73 424.27c112.52 112.52 265.14 175.73 424.27 175.73s311.74-63.215 424.27-175.73c112.52-112.52 175.73-265.14 175.73-424.27s-63.215-311.74-175.73-424.27c-112.52-112.52-265.14-175.73-424.27-175.73zm361.75 752.75c-40.633 95.84-117.61 171.66-214.05 210.84-96.445 39.18-204.49 38.52-300.45-1.8359-95.84-40.633-171.66-117.61-210.84-214.05-39.18-96.445-38.52-204.49 1.8359-300.45 29.988-71.145 80.312-131.85 144.67-174.5 64.355-42.652 139.87-65.348 217.08-65.246 86.68 0.125 170.88 28.898 239.51 81.848 68.625 52.949 117.82 127.1 139.93 210.91 22.109 83.809 15.887 172.58-17.691 252.49z"/>
  <path d="m755 870.5c-6.9609 13.828-14.812 27.188-23.5 40 39.945-16.906 76.207-41.449 106.75-72.25l2.5-2.25c-19.648-9.918-40.043-18.277-61-25-6.8555 20.387-15.125 40.266-24.75 59.5z"/>
  <path d="m742.5 736.5c7.4766-35.48 11.992-71.52 13.5-107.75h-125v102c36.633 1.2773 73.094 5.6289 109 13 1.75-2.5 2-4.75 2.5-7.25z"/>
  <path d="m632 929.5c7.9023-3.9102 15.289-8.7812 22-14.5 21.578-19.488 39.008-43.125 51.25-69.5 7.6133-15.645 14.207-31.758 19.75-48.25-30.902-6.1992-62.254-9.8789-93.75-11z"/>
  <path d="m742.5 464.25-1.5-8c-35.883 7.5078-72.355 11.859-109 13v104h125c-1.6836-36.684-6.5352-73.152-14.5-109z"/>
  <path d="m705.5 354.5c-12.473-26.367-30.062-49.992-51.75-69.5-6.5859-5.7656-13.898-10.641-21.75-14.5v143.25c31.246-1.1641 62.348-4.8398 93-11-5.4922-16.473-12.004-32.586-19.5-48.25z"/>
 </g>
</svg>
